# Blender v2.79 (sub 0) OBJ File: 'Beveled.blend'
# www.blender.org
mtllib LeftLeg.mtl
o Left_Leg_Left_Arm_Cube.005
v 0.000000 0.050000 -0.450000
v 0.050000 0.050000 -0.500000
v 0.950000 0.050000 -0.500000
v 1.000000 0.050000 -0.450000
v 1.000000 0.050000 0.450000
v 0.950000 0.050000 0.500000
v 0.050000 1.950000 -0.499999
v 0.000000 1.950000 -0.449999
v 1.000000 1.950000 -0.449999
v 0.950000 1.950000 -0.499999
v 0.000000 1.950000 0.450001
v 0.050000 1.950000 0.500001
v 0.950000 1.950000 0.500001
v 1.000000 1.950000 0.450001
v 0.050000 0.050000 0.500000
v 0.000000 0.050000 0.450000
v 0.975000 1.975000 0.439645
v 0.939645 1.975000 0.475001
v 0.060355 1.975000 0.475001
v 0.025000 1.975000 0.439645
v 0.025000 1.975000 -0.439644
v 0.060355 1.975000 -0.474999
v 0.939645 1.975000 -0.474999
v 0.975000 1.975000 -0.439644
v 0.975000 0.050000 0.475000
v 0.975000 1.950000 0.475001
v 0.957322 1.975000 0.457323
v 0.025000 1.950000 0.475001
v 0.025000 0.050000 0.475000
v 0.042678 1.975000 0.457323
v 0.975000 0.050000 -0.475000
v 0.975000 1.950000 -0.474999
v 0.957322 1.975000 -0.457322
v 0.025000 0.050000 -0.475000
v 0.025000 1.950000 -0.474999
v 0.042678 1.975000 -0.457322
v 0.939645 0.025000 0.475000
v 0.975000 0.025000 0.439645
v 0.025000 0.025000 0.439645
v 0.060355 0.025000 0.475000
v 0.060355 0.025000 -0.475000
v 0.025000 0.025000 -0.439644
v 0.042678 0.025000 0.457323
v 0.070711 2.000000 -0.449999
v 0.050000 2.000000 -0.429289
v 0.950000 2.000000 -0.429289
v 0.929289 2.000000 -0.449999
v 0.050000 2.000000 0.429290
v 0.070711 2.000000 0.450001
v 0.929289 2.000000 0.450001
v 0.950000 2.000000 0.429290
v 0.975000 1.975000 0.439645
v 0.939645 1.975000 0.475001
v 0.060355 1.975000 0.475001
v 0.025000 1.975000 0.439645
v 0.025000 1.975000 -0.439644
v 0.060355 1.975000 -0.474999
v 0.939645 1.975000 -0.474999
v 0.975000 1.975000 -0.439644
v 0.957322 1.975000 0.457323
v 0.042678 1.975000 0.457323
v 0.957322 1.975000 -0.457322
v 0.042678 1.975000 -0.457322
v 0.060355 2.000000 -0.439644
v 0.939645 2.000000 -0.439644
v 0.939645 2.000000 0.439645
v 0.060355 2.000000 0.439645
v 0.070711 0.000000 -0.449999
v 0.050000 0.000000 -0.429289
v 0.950000 0.000000 -0.429289
v 0.929289 0.000000 -0.449999
v 0.050000 -0.000000 0.429290
v 0.070711 -0.000000 0.450001
v 0.929289 -0.000000 0.450001
v 0.950000 -0.000000 0.429290
v 0.939645 0.025000 -0.474999
v 0.975000 0.025000 -0.439644
v 0.957322 0.025000 0.457323
v 0.957322 0.025000 -0.457322
v 0.042678 0.025000 -0.457322
v 0.060355 0.000000 -0.439644
v 0.939645 0.000000 -0.439644
v 0.939645 -0.000000 0.439645
v 0.060355 -0.000000 0.439645
vt 0.757812 0.367188
vt 0.757812 0.154297
vt 0.855469 0.154297
vt 0.855469 0.367188
vt 0.525391 0.367188
vt 0.525391 0.154297
vt 0.531250 0.154297
vt 0.531250 0.367188
vt 0.634766 0.154297
vt 0.634766 0.367188
vt 0.628906 0.367188
vt 0.628906 0.154297
vt 0.871094 0.367188
vt 0.871094 0.154297
vt 0.968756 0.154297
vt 0.968756 0.367188
vt 0.644531 0.367188
vt 0.644531 0.154297
vt 0.742187 0.154297
vt 0.742187 0.367188
vt 0.748047 0.154297
vt 0.748047 0.367188
vt 0.638672 0.148437
vt 0.644531 0.148437
vt 0.638672 0.154297
vt 0.634766 0.373047
vt 0.628906 0.373047
vt 0.974609 0.373047
vt 0.968756 0.373047
vt 0.974609 0.367188
vt 0.525391 0.148437
vt 0.531250 0.148437
vt 0.865234 0.148437
vt 0.871094 0.148437
vt 0.865234 0.154297
vt 0.861328 0.373047
vt 0.855469 0.373047
vt 0.861328 0.367188
vt 0.751953 0.148437
vt 0.757812 0.148437
vt 0.751953 0.154297
vt 0.748047 0.373047
vt 0.742187 0.373047
vt 0.757812 0.373047
vt 0.855469 0.148437
vt 0.871094 0.373047
vt 0.968756 0.148437
vt 0.644531 0.373047
vt 0.531250 0.373047
vt 0.861328 0.154297
vt 0.638672 0.373047
vt 0.638672 0.367188
vt 0.628906 0.148437
vt 0.634766 0.148437
vt 0.974609 0.148437
vt 0.974609 0.154297
vt 0.525391 0.373047
vt 0.751953 0.373047
vt 0.751953 0.367188
vt 0.742187 0.148437
vt 0.748047 0.148437
vt 0.865234 0.367188
vt 0.865234 0.373047
vt 0.861328 0.148437
vt 0.628906 0.382812
vt 0.531250 0.382812
vt 0.531250 0.376953
vt 0.628906 0.376953
vt 0.628906 0.480469
vt 0.628906 0.382812
vt 0.634766 0.382812
vt 0.634751 0.480469
vt 0.531250 0.382812
vt 0.531250 0.480469
vt 0.525406 0.480469
vt 0.525391 0.382812
vt 0.531250 0.480469
vt 0.628906 0.480469
vt 0.628906 0.486328
vt 0.531250 0.486328
vt 0.531250 0.480469
vt 0.525391 0.486328
vt 0.628906 0.480469
vt 0.634766 0.486328
vt 0.628906 0.382812
vt 0.634766 0.376953
vt 0.531250 0.382812
vt 0.525391 0.376953
vt 0.628906 0.138672
vt 0.628906 0.144531
vt 0.531250 0.144531
vt 0.531250 0.138672
vt 0.628906 0.041016
vt 0.634751 0.041016
vt 0.634766 0.138672
vt 0.628906 0.138672
vt 0.531250 0.138672
vt 0.525391 0.138672
vt 0.525406 0.041016
vt 0.531250 0.041016
vt 0.531250 0.041016
vt 0.531250 0.035156
vt 0.628906 0.035156
vt 0.628906 0.041016
vt 0.525391 0.035156
vt 0.531250 0.041016
vt 0.634766 0.035156
vt 0.628906 0.041016
vt 0.634766 0.144531
vt 0.628906 0.138672
vt 0.525391 0.144531
vt 0.531250 0.138672
vn 0.0000 0.0000 -1.0000
vn -0.7071 -0.0000 0.7071
vn 0.7071 -0.0000 0.7071
vn 0.0000 -0.0000 1.0000
vn -1.0000 0.0000 0.0000
vn 1.0000 0.0000 0.0000
vn 0.7071 0.0000 -0.7071
vn 0.5000 -0.7071 0.5000
vn 0.6269 -0.7345 0.2597
vn 0.5000 0.7071 0.5000
vn 0.2597 0.7345 0.6269
vn -0.5000 0.7071 0.5000
vn -0.6269 0.7345 0.2597
vn -0.5000 -0.7071 0.5000
vn -0.2597 -0.7345 0.6269
vn -0.5000 -0.7071 -0.5000
vn -0.6269 -0.7345 -0.2597
vn -0.5000 0.7071 -0.5000
vn -0.2597 0.7345 -0.6269
vn 0.5000 -0.7071 -0.5000
vn 0.2597 -0.7345 -0.6269
vn 0.5000 0.7071 -0.5000
vn 0.6269 0.7345 -0.2597
vn 0.2597 0.7345 -0.6269
vn -0.2597 -0.7345 -0.6269
vn -0.6269 0.7345 -0.2597
vn -0.6269 -0.7345 0.2597
vn 0.6269 0.7345 0.2597
vn -0.2597 0.7345 0.6269
vn -0.7071 0.0000 -0.7071
vn 0.2597 -0.7345 0.6269
vn 0.6269 -0.7345 -0.2597
vn 0.0000 1.0000 0.0000
vn 0.0000 -1.0000 -0.0000
usemtl RightArm.010
s 1
f 10/1/1 3/2/1 2/3/1 7/4/1
f 28/5/2 29/6/2 15/7/2 12/8/2
f 25/9/3 26/10/3 13/11/3 6/12/3
f 12/8/4 15/7/4 6/12/4 13/11/4
f 8/13/5 1/14/5 16/15/5 11/16/5
f 14/17/6 5/18/6 4/19/6 9/20/6
f 31/21/7 32/22/7 9/20/7 4/19/7
f 78/23/8 38/24/9 5/18/9 25/25/8
f 27/26/10 18/27/11 13/11/11 26/10/10
f 30/28/12 20/29/13 11/16/13 28/30/12
f 43/31/14 40/32/15 15/7/15 29/6/14
f 80/33/16 42/34/17 1/14/17 34/35/16
f 36/36/18 22/37/19 7/4/19 35/38/18
f 79/39/20 76/40/21 3/2/21 31/41/20
f 33/42/22 24/43/23 9/20/23 32/22/22
f 22/37/19 23/44/24 10/1/24 7/4/19
f 76/40/21 41/45/25 2/3/25 3/2/21
f 20/29/13 21/46/26 8/13/26 11/16/13
f 42/34/17 39/47/27 16/15/27 1/14/17
f 24/43/23 17/48/28 14/17/28 9/20/23
f 18/27/11 19/49/29 12/8/29 13/11/11
f 34/50/30 35/38/30 7/4/30 2/3/30
f 17/48/28 27/51/10 26/52/10 14/17/28
f 37/53/31 78/54/8 25/9/8 6/12/31
f 5/18/3 14/17/3 26/52/3 25/25/3
f 39/47/27 43/55/14 29/56/14 16/15/27
f 19/49/29 30/57/12 28/5/12 12/8/29
f 11/16/2 16/15/2 29/56/2 28/30/2
f 23/44/24 33/58/22 32/59/22 10/1/24
f 77/60/32 79/61/20 31/21/20 4/19/32
f 3/2/7 10/1/7 32/59/7 31/41/7
f 1/14/30 8/13/30 35/62/30 34/35/30
f 21/46/26 36/63/18 35/62/18 8/13/26
f 41/45/25 80/64/16 34/50/16 2/3/25
f 6/12/31 15/7/15 40/32/15 37/53/31
f 4/19/32 5/18/9 38/24/9 77/60/32
f 50/65/11 49/66/29 54/67/29 53/68/11
f 46/69/23 51/70/28 52/71/28 59/72/23
f 48/73/13 45/74/26 56/75/26 55/76/13
f 44/77/19 47/78/24 58/79/24 57/80/19
f 45/74/26 64/81/18 63/82/18 56/75/26
f 47/78/24 65/83/22 62/84/22 58/79/24
f 51/70/28 66/85/10 60/86/10 52/71/28
f 49/66/29 67/87/12 61/88/12 54/67/29
f 63/82/18 64/81/18 44/77/19 57/80/19
f 62/84/22 65/83/22 46/69/23 59/72/23
f 60/86/10 66/85/10 50/65/11 53/68/11
f 61/88/12 67/87/12 48/73/13 55/76/13
f 47/78/33 44/77/33 64/81/33 65/83/33
f 50/65/33 66/85/33 67/87/33 49/66/33
f 64/81/33 45/74/33 48/73/33 67/87/33
f 64/81/33 67/87/33 66/85/33 65/83/33
f 51/70/33 46/69/33 65/83/33 66/85/33
usemtl RightArm.009
f 74/89/31 37/90/31 40/91/15 73/92/15
f 70/93/32 77/94/32 38/95/9 75/96/9
f 72/97/27 39/98/27 42/99/17 69/100/17
f 68/101/25 41/102/25 76/103/21 71/104/21
f 69/100/17 42/99/17 80/105/16 81/106/16
f 71/104/21 76/103/21 79/107/20 82/108/20
f 75/96/9 38/95/9 78/109/8 83/110/8
f 73/92/15 40/91/15 43/111/14 84/112/14
f 80/105/16 41/102/25 68/101/25 81/106/16
f 79/107/20 77/94/32 70/93/32 82/108/20
f 78/109/8 37/90/31 74/89/31 83/110/8
f 43/111/14 39/98/27 72/97/27 84/112/14
f 71/104/34 82/108/34 81/106/34 68/101/34
f 74/89/34 73/92/34 84/112/34 83/110/34
f 81/106/34 84/112/34 72/97/34 69/100/34
f 81/106/34 82/108/34 83/110/34 84/112/34
f 75/96/34 83/110/34 82/108/34 70/93/34
